<svg width="12" height="12" viewBox="0 0 12 12" fill="none" xmlns="http://www.w3.org/2000/svg">
<path fill-rule="evenodd" clip-rule="evenodd" d="M5.9999 0.400024C6.44173 0.400024 6.7999 0.758197 6.7999 1.20002V5.20002H10.7999C11.2417 5.20002 11.5999 5.5582 11.5999 6.00002C11.5999 6.44185 11.2417 6.80002 10.7999 6.80002H6.7999V10.8C6.7999 11.2419 6.44173 11.6 5.9999 11.6C5.55807 11.6 5.1999 11.2419 5.1999 10.8V6.80002H1.1999C0.758075 6.80002 0.399902 6.44185 0.399902 6.00002C0.399902 5.5582 0.758075 5.20002 1.1999 5.20002H5.1999V1.20002C5.1999 0.758197 5.55807 0.400024 5.9999 0.400024Z" fill="#6366F1"/>
</svg>
