<svg width="64" height="64" viewBox="0 0 64 64" fill="none"
    xmlns="http://www.w3.org/2000/svg">
    <g clip-path="url(#clip0_19_1133)">
        <rect width="64" height="64" rx="32" fill="#F3F4F6"/>
        <path d="M64 55.984V64.0026H0V56.0133C3.72253 51.0385 8.55442 47.0009 14.1114 44.2214C19.6685 41.442 25.7973 39.9975 32.0107 40.0026C45.088 40.0026 56.704 46.28 64 55.984ZM42.672 24C42.672 26.829 41.5482 29.5421 39.5478 31.5425C37.5474 33.5428 34.8343 34.6666 32.0053 34.6666C29.1764 34.6666 26.4632 33.5428 24.4629 31.5425C22.4625 29.5421 21.3387 26.829 21.3387 24C21.3387 21.171 22.4625 18.4579 24.4629 16.4575C26.4632 14.4571 29.1764 13.3333 32.0053 13.3333C34.8343 13.3333 37.5474 14.4571 39.5478 16.4575C41.5482 18.4579 42.672 21.171 42.672 24Z" fill="#D1D5DB"/>
    </g>
    <defs>
        <clipPath id="clip0_19_1133">
            <rect width="64" height="64" rx="32" fill="white"/>
        </clipPath>
    </defs>
</svg>
