<svg width="195" height="174" viewBox="0 0 195 174" fill="none" xmlns="http://www.w3.org/2000/svg">
<path d="M140.867 161.851H55.8384L14.7902 123.148V57.6517L55.8384 12.995H140.867L181.915 57.6517V123.148L140.867 161.851Z" stroke="#E4832A"/>
<path d="M146.088 172H48.9123L2 127.8V53L48.9123 2H146.088L193 53V127.8L146.088 172Z" stroke="#E4832A" stroke-width="3"/>
<path d="M141 87C141 110.718 121.555 130 97.5 130C73.445 130 54 110.718 54 87C54 63.2822 73.445 44 97.5 44C121.555 44 141 63.2822 141 87Z" stroke="#E4832A" stroke-width="6"/>
<path d="M92 66.9592L97.102 77L102 66.9592L97.102 41L92 66.9592Z" fill="#E4832A" stroke="#E4832A"/>
<path d="M103.389 106.336L97.0547 96.2546L91.2414 106.499L97.5446 132.698L103.389 106.336Z" fill="#E4832A" stroke="#E4832A"/>
<path d="M77.4385 92.947L87.5599 86.6772L77.3529 80.7986L51.1145 86.9341L77.4385 92.947Z" fill="#E4832A" stroke="#E4832A"/>
<path d="M117.227 80.3779L107.016 86.5014L117.137 92.5263L143.461 86.769L117.227 80.3779Z" fill="#E4832A" stroke="#E4832A"/>
<ellipse cx="97.5" cy="87" rx="10.5" ry="10" fill="#E4832A"/>
<rect x="63.3352" y="56.1758" width="2.97521" height="91.8089" transform="rotate(-46.2679 63.3352 56.1758)" fill="#E4832A"/>
<rect x="66.2832" y="120.938" width="2.97521" height="91.4677" transform="rotate(-136.038 66.2832 120.938)" fill="#E4832A"/>
</svg>
