<svg width="36" height="36" viewBox="0 0 36 36" fill="none" xmlns="http://www.w3.org/2000/svg">
<rect width="36" height="36" rx="4" fill="#F9FAFB"/>
<g clip-path="url(#clip0_1518_32542)">
<path d="M11.0423 21.1661C11.0423 22.5537 9.90881 23.6872 8.52117 23.6872C7.13358 23.6872 6 22.5537 6 21.1661C6 19.7785 7.13358 18.6449 8.52117 18.6449H11.0423V21.1661Z" fill="#E01E5A"/>
<path d="M12.3125 21.1661C12.3125 19.7785 13.4461 18.6449 14.8337 18.6449C16.2213 18.6449 17.3548 19.7785 17.3548 21.1661V27.4788C17.3548 28.8664 16.2213 29.9999 14.8337 29.9999C13.4461 29.9999 12.3125 28.8664 12.3125 27.4788V21.1661Z" fill="#E01E5A"/>
<path d="M14.8337 11.0423C13.4461 11.0423 12.3125 9.90881 12.3125 8.52117C12.3125 7.13358 13.4461 6 14.8337 6C16.2213 6 17.3548 7.13358 17.3548 8.52117V11.0423H14.8337Z" fill="#36C5F0"/>
<path d="M14.8339 12.3127C16.2215 12.3127 17.355 13.4463 17.355 14.8339C17.355 16.2216 16.2215 17.3551 14.8339 17.3551H8.52117C7.13358 17.3551 6 16.2216 6 14.8339C6 13.4463 7.13358 12.3127 8.52117 12.3127H14.8339Z" fill="#36C5F0"/>
<path d="M24.9575 14.8339C24.9575 13.4463 26.0911 12.3127 27.4787 12.3127C28.8663 12.3127 29.9999 13.4463 29.9999 14.8339C29.9999 16.2216 28.8663 17.3551 27.4787 17.3551H24.9575V14.8339Z" fill="#2EB67D"/>
<path d="M23.6874 14.8339C23.6874 16.2215 22.5538 17.355 21.1662 17.355C19.7786 17.355 18.645 16.2215 18.645 14.8339V8.52117C18.645 7.13358 19.7786 6 21.1662 6C22.5538 6 23.6874 7.13358 23.6874 8.52117V14.8339Z" fill="#2EB67D"/>
<path d="M21.1662 24.9576C22.5538 24.9576 23.6874 26.0912 23.6874 27.4788C23.6874 28.8665 22.5538 30 21.1662 30C19.7786 30 18.645 28.8665 18.645 27.4788V24.9576H21.1662Z" fill="#ECB22E"/>
<path d="M21.1662 23.6872C19.7786 23.6872 18.645 22.5537 18.645 21.1661C18.645 19.7785 19.7786 18.6449 21.1662 18.6449H27.4789C28.8665 18.6449 30.0001 19.7785 30.0001 21.1661C30.0001 22.5537 28.8665 23.6872 27.4789 23.6872H21.1662Z" fill="#ECB22E"/>
</g>
<defs>
<clipPath id="clip0_1518_32542">
<rect width="24" height="24" fill="white" transform="translate(6 6)"/>
</clipPath>
</defs>
</svg>
